G04 (created by PCBNEW (2013-07-07 BZR 4022)-stable) date 1/5/2014 2:00:07 AM*
%MOIN*%
G04 Gerber Fmt 3.4, Leading zero omitted, Abs format*
%FSLAX34Y34*%
G01*
G70*
G90*
G04 APERTURE LIST*
%ADD10C,0.00590551*%
%ADD11C,0.008*%
%ADD12C,0.0039*%
%ADD13C,0.005*%
%ADD14C,0.0043*%
G04 APERTURE END LIST*
G54D10*
G54D11*
X79200Y-41220D02*
X79200Y-43120D01*
X79200Y-43120D02*
X75200Y-43120D01*
X75200Y-43120D02*
X75200Y-41220D01*
X75200Y-41220D02*
X79200Y-41220D01*
X75200Y-41920D02*
X75450Y-41920D01*
X75450Y-41920D02*
X75450Y-42420D01*
X75450Y-42420D02*
X75200Y-42420D01*
G54D12*
X74150Y-42690D02*
G75*
G03X74150Y-42690I-50J0D01*
G74*
G01*
X74100Y-42240D02*
X74100Y-42640D01*
X74100Y-42640D02*
X73500Y-42640D01*
X73500Y-42640D02*
X73500Y-42240D01*
X73500Y-41840D02*
X73500Y-41440D01*
X73500Y-41440D02*
X74100Y-41440D01*
X74100Y-41440D02*
X74100Y-41840D01*
X76950Y-44310D02*
G75*
G03X76950Y-44310I-50J0D01*
G74*
G01*
X76900Y-44760D02*
X76900Y-44360D01*
X76900Y-44360D02*
X77500Y-44360D01*
X77500Y-44360D02*
X77500Y-44760D01*
X77500Y-45160D02*
X77500Y-45560D01*
X77500Y-45560D02*
X76900Y-45560D01*
X76900Y-45560D02*
X76900Y-45160D01*
X77950Y-44310D02*
G75*
G03X77950Y-44310I-50J0D01*
G74*
G01*
X77900Y-44760D02*
X77900Y-44360D01*
X77900Y-44360D02*
X78500Y-44360D01*
X78500Y-44360D02*
X78500Y-44760D01*
X78500Y-45160D02*
X78500Y-45560D01*
X78500Y-45560D02*
X77900Y-45560D01*
X77900Y-45560D02*
X77900Y-45160D01*
X75030Y-42690D02*
G75*
G03X75030Y-42690I-50J0D01*
G74*
G01*
X74980Y-42240D02*
X74980Y-42640D01*
X74980Y-42640D02*
X74380Y-42640D01*
X74380Y-42640D02*
X74380Y-42240D01*
X74380Y-41840D02*
X74380Y-41440D01*
X74380Y-41440D02*
X74980Y-41440D01*
X74980Y-41440D02*
X74980Y-41840D01*
G54D10*
X73260Y-40940D02*
G75*
G03X73260Y-40940I-640J0D01*
G74*
G01*
X71800Y-40940D02*
G75*
G03X71800Y-40940I-640J0D01*
G74*
G01*
G54D13*
X78237Y-40121D02*
X78237Y-40445D01*
X78258Y-40483D01*
X78280Y-40502D01*
X78322Y-40521D01*
X78408Y-40521D01*
X78451Y-40502D01*
X78472Y-40483D01*
X78494Y-40445D01*
X78494Y-40121D01*
X78944Y-40521D02*
X78687Y-40521D01*
X78815Y-40521D02*
X78815Y-40121D01*
X78772Y-40179D01*
X78730Y-40217D01*
X78687Y-40236D01*
X76123Y-42381D02*
X76390Y-42381D01*
X76219Y-42781D01*
X76714Y-42515D02*
X76714Y-42781D01*
X76619Y-42362D02*
X76523Y-42648D01*
X76771Y-42648D01*
X76904Y-42667D02*
X77095Y-42667D01*
X76866Y-42781D02*
X77000Y-42381D01*
X77133Y-42781D01*
X77495Y-42743D02*
X77476Y-42762D01*
X77419Y-42781D01*
X77380Y-42781D01*
X77323Y-42762D01*
X77285Y-42724D01*
X77266Y-42686D01*
X77247Y-42610D01*
X77247Y-42553D01*
X77266Y-42477D01*
X77285Y-42439D01*
X77323Y-42400D01*
X77380Y-42381D01*
X77419Y-42381D01*
X77476Y-42400D01*
X77495Y-42420D01*
X77876Y-42781D02*
X77647Y-42781D01*
X77761Y-42781D02*
X77761Y-42381D01*
X77723Y-42439D01*
X77685Y-42477D01*
X77647Y-42496D01*
X78219Y-42515D02*
X78219Y-42781D01*
X78123Y-42362D02*
X78028Y-42648D01*
X78276Y-42648D01*
G54D14*
X74200Y-41232D02*
X74210Y-41242D01*
X74219Y-41270D01*
X74219Y-41289D01*
X74210Y-41317D01*
X74191Y-41336D01*
X74172Y-41345D01*
X74135Y-41354D01*
X74107Y-41354D01*
X74069Y-41345D01*
X74050Y-41336D01*
X74032Y-41317D01*
X74022Y-41289D01*
X74022Y-41270D01*
X74032Y-41242D01*
X74041Y-41232D01*
X74219Y-41045D02*
X74219Y-41157D01*
X74219Y-41101D02*
X74022Y-41101D01*
X74050Y-41120D01*
X74069Y-41139D01*
X74079Y-41157D01*
X77279Y-45872D02*
X77185Y-45938D01*
X77279Y-45985D02*
X77082Y-45985D01*
X77082Y-45910D01*
X77092Y-45891D01*
X77101Y-45882D01*
X77120Y-45872D01*
X77148Y-45872D01*
X77167Y-45882D01*
X77176Y-45891D01*
X77185Y-45910D01*
X77185Y-45985D01*
X77101Y-45797D02*
X77092Y-45788D01*
X77082Y-45769D01*
X77082Y-45722D01*
X77092Y-45703D01*
X77101Y-45694D01*
X77120Y-45685D01*
X77139Y-45685D01*
X77167Y-45694D01*
X77279Y-45807D01*
X77279Y-45685D01*
X78279Y-45912D02*
X78185Y-45978D01*
X78279Y-46025D02*
X78082Y-46025D01*
X78082Y-45950D01*
X78092Y-45931D01*
X78101Y-45922D01*
X78120Y-45912D01*
X78148Y-45912D01*
X78167Y-45922D01*
X78176Y-45931D01*
X78185Y-45950D01*
X78185Y-46025D01*
X78082Y-45847D02*
X78082Y-45725D01*
X78157Y-45790D01*
X78157Y-45762D01*
X78167Y-45743D01*
X78176Y-45734D01*
X78195Y-45725D01*
X78242Y-45725D01*
X78260Y-45734D01*
X78270Y-45743D01*
X78279Y-45762D01*
X78279Y-45819D01*
X78270Y-45837D01*
X78260Y-45847D01*
X74999Y-41232D02*
X74905Y-41298D01*
X74999Y-41345D02*
X74802Y-41345D01*
X74802Y-41270D01*
X74812Y-41251D01*
X74821Y-41242D01*
X74840Y-41232D01*
X74868Y-41232D01*
X74887Y-41242D01*
X74896Y-41251D01*
X74905Y-41270D01*
X74905Y-41345D01*
X74999Y-41045D02*
X74999Y-41157D01*
X74999Y-41101D02*
X74802Y-41101D01*
X74830Y-41120D01*
X74849Y-41139D01*
X74859Y-41157D01*
G54D10*
X72329Y-42099D02*
X72329Y-41705D01*
X72479Y-41705D01*
X72516Y-41724D01*
X72535Y-41743D01*
X72554Y-41780D01*
X72554Y-41836D01*
X72535Y-41874D01*
X72516Y-41893D01*
X72479Y-41911D01*
X72329Y-41911D01*
X72929Y-42099D02*
X72704Y-42099D01*
X72816Y-42099D02*
X72816Y-41705D01*
X72779Y-41761D01*
X72741Y-41799D01*
X72704Y-41818D01*
X73068Y-40085D02*
X73200Y-40479D01*
X73331Y-40085D01*
X73687Y-40441D02*
X73668Y-40460D01*
X73612Y-40479D01*
X73575Y-40479D01*
X73518Y-40460D01*
X73481Y-40423D01*
X73462Y-40385D01*
X73443Y-40310D01*
X73443Y-40254D01*
X73462Y-40179D01*
X73481Y-40141D01*
X73518Y-40104D01*
X73575Y-40085D01*
X73612Y-40085D01*
X73668Y-40104D01*
X73687Y-40123D01*
X74081Y-40441D02*
X74062Y-40460D01*
X74006Y-40479D01*
X73968Y-40479D01*
X73912Y-40460D01*
X73875Y-40423D01*
X73856Y-40385D01*
X73837Y-40310D01*
X73837Y-40254D01*
X73856Y-40179D01*
X73875Y-40141D01*
X73912Y-40104D01*
X73968Y-40085D01*
X74006Y-40085D01*
X74062Y-40104D01*
X74081Y-40123D01*
X74531Y-40123D02*
X74550Y-40104D01*
X74587Y-40085D01*
X74681Y-40085D01*
X74718Y-40104D01*
X74737Y-40123D01*
X74756Y-40160D01*
X74756Y-40198D01*
X74737Y-40254D01*
X74512Y-40479D01*
X74756Y-40479D01*
X74868Y-40085D02*
X74999Y-40479D01*
X75131Y-40085D01*
X75262Y-40329D02*
X75562Y-40329D01*
X75937Y-40085D02*
X75749Y-40085D01*
X75731Y-40273D01*
X75749Y-40254D01*
X75787Y-40235D01*
X75881Y-40235D01*
X75918Y-40254D01*
X75937Y-40273D01*
X75956Y-40310D01*
X75956Y-40404D01*
X75937Y-40441D01*
X75918Y-40460D01*
X75881Y-40479D01*
X75787Y-40479D01*
X75749Y-40460D01*
X75731Y-40441D01*
X76068Y-40085D02*
X76199Y-40479D01*
X76331Y-40085D01*
X69789Y-41339D02*
X69789Y-40945D01*
X69939Y-40945D01*
X69976Y-40964D01*
X69995Y-40983D01*
X70014Y-41020D01*
X70014Y-41076D01*
X69995Y-41114D01*
X69976Y-41133D01*
X69939Y-41151D01*
X69789Y-41151D01*
X70164Y-40983D02*
X70183Y-40964D01*
X70220Y-40945D01*
X70314Y-40945D01*
X70351Y-40964D01*
X70370Y-40983D01*
X70389Y-41020D01*
X70389Y-41058D01*
X70370Y-41114D01*
X70145Y-41339D01*
X70389Y-41339D01*
X69860Y-40124D02*
X69822Y-40105D01*
X69766Y-40105D01*
X69710Y-40124D01*
X69672Y-40161D01*
X69653Y-40199D01*
X69635Y-40274D01*
X69635Y-40330D01*
X69653Y-40405D01*
X69672Y-40443D01*
X69710Y-40480D01*
X69766Y-40499D01*
X69803Y-40499D01*
X69860Y-40480D01*
X69878Y-40461D01*
X69878Y-40330D01*
X69803Y-40330D01*
X70047Y-40499D02*
X70047Y-40105D01*
X70272Y-40499D01*
X70272Y-40105D01*
X70459Y-40499D02*
X70459Y-40105D01*
X70553Y-40105D01*
X70609Y-40124D01*
X70647Y-40161D01*
X70666Y-40199D01*
X70684Y-40274D01*
X70684Y-40330D01*
X70666Y-40405D01*
X70647Y-40443D01*
X70609Y-40480D01*
X70553Y-40499D01*
X70459Y-40499D01*
M02*
