G04 (created by PCBNEW (2013-07-07 BZR 4022)-stable) date 1/5/2014 2:00:07 AM*
%MOIN*%
G04 Gerber Fmt 3.4, Leading zero omitted, Abs format*
%FSLAX34Y34*%
G01*
G70*
G90*
G04 APERTURE LIST*
%ADD10C,0.00590551*%
%ADD11C,0.0075*%
%ADD12R,0.02X0.045*%
%ADD13R,0.055X0.035*%
%ADD14C,0.12*%
%ADD15C,0.6*%
%ADD16C,0.2*%
G04 APERTURE END LIST*
G54D10*
G54D11*
X69756Y-42242D02*
X69813Y-42261D01*
X69908Y-42261D01*
X69946Y-42242D01*
X69965Y-42223D01*
X69984Y-42185D01*
X69984Y-42147D01*
X69965Y-42109D01*
X69946Y-42090D01*
X69908Y-42071D01*
X69832Y-42052D01*
X69794Y-42033D01*
X69775Y-42014D01*
X69756Y-41976D01*
X69756Y-41938D01*
X69775Y-41900D01*
X69794Y-41880D01*
X69832Y-41861D01*
X69927Y-41861D01*
X69984Y-41880D01*
X70327Y-42242D02*
X70289Y-42261D01*
X70213Y-42261D01*
X70175Y-42242D01*
X70156Y-42223D01*
X70137Y-42185D01*
X70137Y-42071D01*
X70156Y-42033D01*
X70175Y-42014D01*
X70213Y-41995D01*
X70289Y-41995D01*
X70327Y-42014D01*
X70499Y-42261D02*
X70499Y-41861D01*
X70670Y-42261D02*
X70670Y-42052D01*
X70651Y-42014D01*
X70613Y-41995D01*
X70556Y-41995D01*
X70518Y-42014D01*
X70499Y-42033D01*
X70860Y-42261D02*
X70860Y-41995D01*
X70860Y-42033D02*
X70880Y-42014D01*
X70918Y-41995D01*
X70975Y-41995D01*
X71013Y-42014D01*
X71032Y-42052D01*
X71032Y-42261D01*
X71032Y-42052D02*
X71051Y-42014D01*
X71089Y-41995D01*
X71146Y-41995D01*
X71184Y-42014D01*
X71203Y-42052D01*
X71203Y-42261D01*
X71394Y-42261D02*
X71394Y-41995D01*
X71394Y-41861D02*
X71375Y-41880D01*
X71394Y-41900D01*
X71413Y-41880D01*
X71394Y-41861D01*
X71394Y-41900D01*
X71527Y-41995D02*
X71680Y-41995D01*
X71584Y-41861D02*
X71584Y-42204D01*
X71603Y-42242D01*
X71641Y-42261D01*
X71680Y-42261D01*
X71756Y-41995D02*
X71908Y-41995D01*
X71813Y-41861D02*
X71813Y-42204D01*
X71832Y-42242D01*
X71870Y-42261D01*
X71908Y-42261D01*
X69718Y-42496D02*
X69946Y-42496D01*
X69832Y-42896D02*
X69832Y-42496D01*
X70080Y-42896D02*
X70080Y-42630D01*
X70080Y-42706D02*
X70099Y-42668D01*
X70118Y-42649D01*
X70156Y-42630D01*
X70194Y-42630D01*
X70327Y-42896D02*
X70327Y-42630D01*
X70327Y-42496D02*
X70308Y-42515D01*
X70327Y-42535D01*
X70346Y-42515D01*
X70327Y-42496D01*
X70327Y-42535D01*
X70689Y-42630D02*
X70689Y-42954D01*
X70670Y-42992D01*
X70651Y-43011D01*
X70613Y-43030D01*
X70556Y-43030D01*
X70518Y-43011D01*
X70689Y-42877D02*
X70651Y-42896D01*
X70575Y-42896D01*
X70537Y-42877D01*
X70518Y-42858D01*
X70499Y-42820D01*
X70499Y-42706D01*
X70518Y-42668D01*
X70537Y-42649D01*
X70575Y-42630D01*
X70651Y-42630D01*
X70689Y-42649D01*
X71051Y-42630D02*
X71051Y-42954D01*
X71032Y-42992D01*
X71013Y-43011D01*
X70975Y-43030D01*
X70918Y-43030D01*
X70880Y-43011D01*
X71051Y-42877D02*
X71013Y-42896D01*
X70937Y-42896D01*
X70899Y-42877D01*
X70880Y-42858D01*
X70860Y-42820D01*
X70860Y-42706D01*
X70880Y-42668D01*
X70899Y-42649D01*
X70937Y-42630D01*
X71013Y-42630D01*
X71051Y-42649D01*
X71394Y-42877D02*
X71356Y-42896D01*
X71280Y-42896D01*
X71241Y-42877D01*
X71222Y-42839D01*
X71222Y-42687D01*
X71241Y-42649D01*
X71280Y-42630D01*
X71356Y-42630D01*
X71394Y-42649D01*
X71413Y-42687D01*
X71413Y-42725D01*
X71222Y-42763D01*
X71584Y-42896D02*
X71584Y-42630D01*
X71584Y-42706D02*
X71603Y-42668D01*
X71622Y-42649D01*
X71660Y-42630D01*
X71699Y-42630D01*
X69851Y-43131D02*
X69927Y-43131D01*
X69965Y-43150D01*
X70003Y-43189D01*
X70022Y-43265D01*
X70022Y-43398D01*
X70003Y-43474D01*
X69965Y-43512D01*
X69927Y-43531D01*
X69851Y-43531D01*
X69813Y-43512D01*
X69775Y-43474D01*
X69756Y-43398D01*
X69756Y-43265D01*
X69775Y-43189D01*
X69813Y-43150D01*
X69851Y-43131D01*
X70175Y-43512D02*
X70213Y-43531D01*
X70289Y-43531D01*
X70327Y-43512D01*
X70346Y-43474D01*
X70346Y-43455D01*
X70327Y-43417D01*
X70289Y-43398D01*
X70232Y-43398D01*
X70194Y-43379D01*
X70175Y-43341D01*
X70175Y-43322D01*
X70194Y-43284D01*
X70232Y-43265D01*
X70289Y-43265D01*
X70327Y-43284D01*
X70689Y-43512D02*
X70651Y-43531D01*
X70575Y-43531D01*
X70537Y-43512D01*
X70518Y-43493D01*
X70499Y-43455D01*
X70499Y-43341D01*
X70518Y-43303D01*
X70537Y-43284D01*
X70575Y-43265D01*
X70651Y-43265D01*
X70689Y-43284D01*
G54D12*
X75700Y-43420D03*
X76200Y-43420D03*
X76700Y-43420D03*
X77200Y-43420D03*
X77700Y-43420D03*
X78200Y-43420D03*
X78700Y-43420D03*
X78700Y-40920D03*
X78200Y-40920D03*
X77200Y-40920D03*
X76700Y-40920D03*
X76200Y-40920D03*
X75700Y-40920D03*
X77700Y-40920D03*
G54D13*
X73800Y-42415D03*
X73800Y-41665D03*
X77200Y-44585D03*
X77200Y-45335D03*
X78200Y-44585D03*
X78200Y-45335D03*
X74680Y-42415D03*
X74680Y-41665D03*
G54D14*
X72620Y-40940D03*
X71160Y-40940D03*
G54D15*
X72980Y-46140D03*
G54D16*
X77678Y-47850D03*
M02*
