G04 (created by PCBNEW (2013-07-07 BZR 4022)-stable) date 1/5/2014 2:00:07 AM*
%MOIN*%
G04 Gerber Fmt 3.4, Leading zero omitted, Abs format*
%FSLAX34Y34*%
G01*
G70*
G90*
G04 APERTURE LIST*
%ADD10C,0.00590551*%
%ADD11C,0.011811*%
%ADD12C,0.0039*%
%ADD13C,0.012*%
%ADD14C,0.015*%
%ADD15C,0.0043*%
G04 APERTURE END LIST*
G54D10*
G54D11*
X72281Y-41988D02*
X71943Y-41988D01*
X72112Y-42579D02*
X72112Y-41988D01*
X71746Y-42522D02*
X71718Y-42550D01*
X71746Y-42579D01*
X71774Y-42550D01*
X71746Y-42522D01*
X71746Y-42579D01*
X71156Y-42016D02*
X71212Y-41988D01*
X71296Y-41988D01*
X71381Y-42016D01*
X71437Y-42072D01*
X71465Y-42129D01*
X71493Y-42241D01*
X71493Y-42325D01*
X71465Y-42438D01*
X71437Y-42494D01*
X71381Y-42550D01*
X71296Y-42579D01*
X71240Y-42579D01*
X71156Y-42550D01*
X71128Y-42522D01*
X71128Y-42325D01*
X71240Y-42325D01*
X70875Y-42522D02*
X70846Y-42550D01*
X70875Y-42579D01*
X70903Y-42550D01*
X70875Y-42522D01*
X70875Y-42579D01*
X70593Y-42579D02*
X70593Y-41988D01*
X70368Y-41988D01*
X70312Y-42016D01*
X70284Y-42044D01*
X70256Y-42100D01*
X70256Y-42185D01*
X70284Y-42241D01*
X70312Y-42269D01*
X70368Y-42297D01*
X70593Y-42297D01*
X70003Y-42522D02*
X69975Y-42550D01*
X70003Y-42579D01*
X70031Y-42550D01*
X70003Y-42522D01*
X70003Y-42579D01*
G54D12*
X76550Y-41530D02*
G75*
G03X76550Y-41530I-50J0D01*
G74*
G01*
X76500Y-41980D02*
X76500Y-41580D01*
X76500Y-41580D02*
X75900Y-41580D01*
X75900Y-41580D02*
X75900Y-41980D01*
X75900Y-42380D02*
X75900Y-42780D01*
X75900Y-42780D02*
X76500Y-42780D01*
X76500Y-42780D02*
X76500Y-42380D01*
X79130Y-41530D02*
G75*
G03X79130Y-41530I-50J0D01*
G74*
G01*
X79080Y-41980D02*
X79080Y-41580D01*
X79080Y-41580D02*
X78480Y-41580D01*
X78480Y-41580D02*
X78480Y-41980D01*
X78480Y-42380D02*
X78480Y-42780D01*
X78480Y-42780D02*
X79080Y-42780D01*
X79080Y-42780D02*
X79080Y-42380D01*
X78270Y-41530D02*
G75*
G03X78270Y-41530I-50J0D01*
G74*
G01*
X78220Y-41980D02*
X78220Y-41580D01*
X78220Y-41580D02*
X77620Y-41580D01*
X77620Y-41580D02*
X77620Y-41980D01*
X77620Y-42380D02*
X77620Y-42780D01*
X77620Y-42780D02*
X78220Y-42780D01*
X78220Y-42780D02*
X78220Y-42380D01*
X77350Y-41530D02*
G75*
G03X77350Y-41530I-50J0D01*
G74*
G01*
X77300Y-41980D02*
X77300Y-41580D01*
X77300Y-41580D02*
X76700Y-41580D01*
X76700Y-41580D02*
X76700Y-41980D01*
X76700Y-42380D02*
X76700Y-42780D01*
X76700Y-42780D02*
X77300Y-42780D01*
X77300Y-42780D02*
X77300Y-42380D01*
G54D13*
X76312Y-45756D02*
X78661Y-46611D01*
X78661Y-46611D02*
X79259Y-47893D01*
X79259Y-47893D02*
X78916Y-48832D01*
X78916Y-48832D02*
X77635Y-49430D01*
X77635Y-49430D02*
X75286Y-48575D01*
G54D14*
X76334Y-46140D02*
G75*
G03X76334Y-46140I-3354J0D01*
G74*
G01*
G54D15*
X76280Y-42987D02*
X76290Y-42977D01*
X76299Y-42949D01*
X76299Y-42930D01*
X76290Y-42902D01*
X76271Y-42883D01*
X76252Y-42874D01*
X76215Y-42865D01*
X76187Y-42865D01*
X76149Y-42874D01*
X76130Y-42883D01*
X76112Y-42902D01*
X76102Y-42930D01*
X76102Y-42949D01*
X76112Y-42977D01*
X76121Y-42987D01*
X76121Y-43062D02*
X76112Y-43071D01*
X76102Y-43090D01*
X76102Y-43137D01*
X76112Y-43156D01*
X76121Y-43165D01*
X76140Y-43174D01*
X76159Y-43174D01*
X76187Y-43165D01*
X76299Y-43052D01*
X76299Y-43174D01*
X78879Y-42987D02*
X78785Y-42921D01*
X78879Y-42874D02*
X78682Y-42874D01*
X78682Y-42949D01*
X78692Y-42968D01*
X78701Y-42977D01*
X78720Y-42987D01*
X78748Y-42987D01*
X78767Y-42977D01*
X78776Y-42968D01*
X78785Y-42949D01*
X78785Y-42874D01*
X78748Y-43156D02*
X78879Y-43156D01*
X78673Y-43109D02*
X78814Y-43062D01*
X78814Y-43184D01*
X78019Y-42987D02*
X77925Y-42921D01*
X78019Y-42874D02*
X77822Y-42874D01*
X77822Y-42949D01*
X77832Y-42968D01*
X77841Y-42977D01*
X77860Y-42987D01*
X77888Y-42987D01*
X77907Y-42977D01*
X77916Y-42968D01*
X77925Y-42949D01*
X77925Y-42874D01*
X77822Y-43165D02*
X77822Y-43071D01*
X77916Y-43062D01*
X77907Y-43071D01*
X77897Y-43090D01*
X77897Y-43137D01*
X77907Y-43156D01*
X77916Y-43165D01*
X77935Y-43174D01*
X77982Y-43174D01*
X78000Y-43165D01*
X78010Y-43156D01*
X78019Y-43137D01*
X78019Y-43090D01*
X78010Y-43071D01*
X78000Y-43062D01*
X77099Y-42987D02*
X77005Y-42921D01*
X77099Y-42874D02*
X76902Y-42874D01*
X76902Y-42949D01*
X76912Y-42968D01*
X76921Y-42977D01*
X76940Y-42987D01*
X76968Y-42987D01*
X76987Y-42977D01*
X76996Y-42968D01*
X77005Y-42949D01*
X77005Y-42874D01*
X76902Y-43156D02*
X76902Y-43118D01*
X76912Y-43099D01*
X76921Y-43090D01*
X76949Y-43071D01*
X76987Y-43062D01*
X77062Y-43062D01*
X77080Y-43071D01*
X77090Y-43080D01*
X77099Y-43099D01*
X77099Y-43137D01*
X77090Y-43156D01*
X77080Y-43165D01*
X77062Y-43174D01*
X77015Y-43174D01*
X76996Y-43165D01*
X76987Y-43156D01*
X76977Y-43137D01*
X76977Y-43099D01*
X76987Y-43080D01*
X76996Y-43071D01*
X77015Y-43062D01*
G54D13*
X70573Y-49599D02*
X70778Y-49035D01*
X70563Y-48957D01*
X70500Y-48964D01*
X70463Y-48982D01*
X70417Y-49025D01*
X70387Y-49106D01*
X70395Y-49170D01*
X70412Y-49206D01*
X70456Y-49253D01*
X70670Y-49331D01*
X70268Y-48850D02*
X69919Y-48723D01*
X70028Y-49006D01*
X69948Y-48977D01*
X69884Y-48984D01*
X69848Y-49001D01*
X69801Y-49045D01*
X69753Y-49179D01*
X69760Y-49243D01*
X69777Y-49279D01*
X69821Y-49326D01*
X69982Y-49384D01*
X70045Y-49377D01*
X70082Y-49360D01*
M02*
